<svg width="819" height="408" viewBox="0 0 819 408" fill="none" xmlns="http://www.w3.org/2000/svg">
<path d="M355.984 188.088C357.844 188.069 376.742 187.696 402.557 188.088C428.645 188.483 444.289 207.213 444.289 228.498V268.407C444.289 288.67 425.673 308.284 399.091 308.284C372.76 308.284 356.516 308.316 355.178 308.284C354.355 308.264 353.386 307.79 352.636 307.112C351.879 306.429 351.247 305.449 351.232 304.332C351.219 303.395 351.219 294.875 351.222 286.598C351.224 282.458 351.226 278.375 351.228 275.328C351.229 273.805 351.23 272.54 351.231 271.656C351.231 271.294 351.231 270.995 351.231 270.769H336.566C336.388 270.769 336.207 270.701 336.084 270.646C335.943 270.583 335.792 270.497 335.653 270.402C335.515 270.308 335.371 270.192 335.256 270.061C335.157 269.949 335.004 269.742 335.001 269.475C334.998 269.143 335.001 257.583 335.001 256.965C335.002 256.046 335.786 255.408 336.562 255.402C336.83 255.4 340.693 255.4 344.482 255.4C346.377 255.4 348.257 255.401 349.661 255.401C350.364 255.401 350.948 255.402 351.357 255.402C351.406 255.402 351.453 255.402 351.497 255.402V192.313C351.497 191.319 352.139 190.27 352.95 189.497C353.768 188.717 354.881 188.099 355.984 188.088ZM372.251 206.978V288.861H401.486C405.897 288.861 411.527 286.397 416.037 282.695C420.545 278.995 424.07 273.945 424.07 268.672V228.497C424.07 222.03 420.083 216.647 415.47 212.91C413.157 211.036 410.666 209.558 408.395 208.547C406.136 207.542 404.049 206.978 402.55 206.978H372.251Z" fill="#013866"/>
<path d="M464.174 248.451C463.825 229.136 484.136 216.698 501.791 217.62C519.954 216.993 542.768 227.759 542.732 248.451V264.681C543.032 267.965 539.828 270.844 536.647 270.769C519.076 270.857 501.504 270.944 483.932 271.031C483.932 273.881 483.932 276.731 483.932 279.571C484.379 288.306 493.402 293.788 501.813 293.715C511.27 294.368 520.541 289.918 525.247 280.996C526.609 280.641 527.407 280.886 528.452 280.946L528.65 281.012C532.73 283.406 536.81 285.801 540.889 288.195L541.066 288.371C541.645 289.472 541.605 290.735 541.084 291.776C533.259 306.269 515.622 311.52 500.177 310.966C499.913 310.96 499.647 310.952 499.38 310.943L499.358 310.943C482.309 310.648 464.689 297.869 464.179 279.8C464.178 279.759 464.177 279.724 464.176 279.694C464.176 279.688 464.174 279.592 464.174 279.581V271.034C461.017 271.034 457.852 271.034 454.698 271.034C454.257 271.057 453.708 270.782 453.474 270.386C453.227 269.993 453.151 269.631 453.133 269.204V256.965C453.154 256.54 453.266 256.186 453.569 255.851C453.873 255.52 454.336 255.395 454.698 255.401H464.174V248.451ZM502.59 233.85C493.13 233.85 488.308 237.444 485.877 241.125C484.671 242.951 484.069 244.774 483.768 246.14C483.618 246.823 483.543 247.395 483.505 247.798C483.486 247.999 483.475 248.16 483.47 248.271C483.468 248.326 483.467 248.369 483.466 248.4C483.466 248.414 483.466 248.427 483.466 248.436V248.45C483.47 248.451 483.513 248.451 483.966 248.451H483.466V256.135H523.31V248.423L523.307 248.395L522.81 248.451C523.307 248.395 523.307 248.394 523.307 248.394V248.39C523.307 248.387 523.306 248.383 523.305 248.379C523.304 248.371 523.303 248.358 523.301 248.344C523.297 248.314 523.291 248.27 523.282 248.215C523.264 248.104 523.237 247.944 523.195 247.743C523.112 247.341 522.972 246.771 522.745 246.09C522.291 244.727 521.485 242.911 520.08 241.095C517.253 237.441 512.048 233.85 502.59 233.85Z" fill="#013866"/>
<rect x="562.188" y="183" width="19.1565" height="125.049" rx="5" fill="#013866"/>
<path d="M644.67 217.886H644.692L644.712 217.888C653.979 218.738 660.564 220.475 665.528 224.584C670.49 228.693 673.754 235.109 676.543 245.124L676.562 245.191V276.396C676.423 284.95 675.114 290.889 672.237 295.612C669.36 300.334 664.953 303.778 658.755 307.416L658.709 307.443L658.66 307.459C652.968 309.346 648.175 310.517 642.499 310.693C636.956 310.864 630.594 310.086 621.748 308.137L621.487 342.109L621.486 342.209L621.447 342.302C621.108 343.093 620.778 343.703 620.33 344.242C619.883 344.782 619.339 345.227 618.603 345.715L618.477 345.798H604.635L604.527 345.741C603.72 345.323 603.116 344.913 602.617 344.366C602.119 343.822 601.75 343.169 601.372 342.306L601.33 342.21V229.785L601.337 229.745C601.565 228.37 601.859 227.387 602.316 226.562C602.774 225.735 603.376 225.101 604.158 224.4L604.22 224.343L604.297 224.311C618.33 218.41 627.594 217.758 644.67 217.886ZM641.311 235.383C636.425 235.086 632.823 235.186 626.004 235.714L625.949 235.718L625.896 235.734C623.203 236.563 621.966 237.166 620.631 238.523L620.488 238.668V290.351L620.87 290.443C632.548 293.269 640.86 294.241 646.703 292.355C649.648 291.403 651.962 289.728 653.753 287.228C655.537 284.738 656.789 281.449 657.661 277.288L657.672 277.237V248.646L657.652 248.577C656.345 244.098 654.768 241.161 652.346 239.169C649.932 237.183 646.744 236.193 642.356 235.453L642.331 235.449L642.307 235.447L641.311 235.383Z" fill="#013866"/>
<path d="M714.375 220.515C715.287 221.006 715.588 221.407 715.706 222.377V305.123C714.647 307.112 713.635 307.792 710.917 308.05H699.476C697.257 307.263 696.475 306.468 696.017 304.324V235.414H686.705C686.126 235.015 685.909 234.712 685.641 234.084V221.845C685.868 221.12 686.11 220.838 686.705 220.515H714.375ZM705.972 188.321C711.495 188.321 715.972 192.798 715.972 198.321V199.074C715.972 204.597 711.495 209.074 705.972 209.074H705.219C699.696 209.074 695.219 204.597 695.219 199.074V198.321C695.219 192.798 699.696 188.321 705.219 188.321H705.972Z" fill="#013866"/>
<path d="M22.705 158V103.185H0.57V91.025H59.565V103.185H37.43V158H22.705ZM66.7694 158V91.025H97.3594C104.833 91.025 110.596 92.83 114.649 96.44C118.703 100.05 120.729 105.085 120.729 111.545C120.729 115.725 119.811 119.335 117.974 122.375C116.138 125.415 113.478 127.758 109.994 129.405C106.574 131.052 102.363 131.875 97.3594 131.875L98.1194 130.26H102.014C104.674 130.26 106.986 130.925 108.949 132.255C110.976 133.522 112.718 135.485 114.174 138.145L125.004 158H108.759L97.1694 136.625C96.5361 135.485 95.8077 134.598 94.9844 133.965C94.1611 133.268 93.2111 132.793 92.1344 132.54C91.1211 132.223 89.9811 132.065 88.7144 132.065H81.4944V158H66.7694ZM81.4944 121.425H94.6994C98.6261 121.425 101.571 120.633 103.534 119.05C105.561 117.467 106.574 115.092 106.574 111.925C106.574 108.822 105.561 106.478 103.534 104.895C101.571 103.312 98.6261 102.52 94.6994 102.52H81.4944V121.425ZM123.923 158L154.703 91.025H166.578L197.358 158H182.538L174.558 139.38L180.448 143.465H140.833L146.723 139.38L138.838 158H123.923ZM160.498 106.7L148.338 135.675L145.773 131.97H175.508L172.943 135.675L160.688 106.7H160.498ZM203.146 158V91.025H214.071L250.076 136.91H247.511V91.025H261.191V158H250.361L214.356 112.02H216.826V158H203.146ZM298.615 159.045C295.131 159.045 291.743 158.728 288.45 158.095C285.22 157.525 282.211 156.702 279.425 155.625C276.638 154.485 274.2 153.155 272.11 151.635L276.385 140.045C278.411 141.438 280.596 142.642 282.94 143.655C285.283 144.668 287.785 145.46 290.445 146.03C293.105 146.537 295.828 146.79 298.615 146.79C303.238 146.79 306.531 146.093 308.495 144.7C310.458 143.243 311.44 141.438 311.44 139.285C311.44 138.082 311.123 137.037 310.49 136.15C309.92 135.263 308.938 134.503 307.545 133.87C306.215 133.173 304.378 132.603 302.035 132.16L291.3 129.88C285.22 128.613 280.691 126.46 277.715 123.42C274.801 120.317 273.345 116.263 273.345 111.26C273.345 106.953 274.485 103.217 276.765 100.05C279.108 96.8833 282.306 94.4133 286.36 92.64C290.476 90.8667 295.195 89.98 300.515 89.98C303.618 89.98 306.595 90.2967 309.445 90.93C312.295 91.5 314.923 92.355 317.33 93.495C319.736 94.635 321.826 95.9967 323.6 97.58L319.325 108.41C316.791 106.383 313.941 104.863 310.775 103.85C307.608 102.773 304.156 102.235 300.42 102.235C297.76 102.235 295.48 102.583 293.58 103.28C291.743 103.977 290.318 104.958 289.305 106.225C288.355 107.492 287.88 108.948 287.88 110.595C287.88 112.432 288.545 113.92 289.875 115.06C291.205 116.2 293.516 117.118 296.81 117.815L307.545 120.095C313.751 121.425 318.375 123.578 321.415 126.555C324.455 129.468 325.975 133.332 325.975 138.145C325.975 142.325 324.835 145.998 322.555 149.165C320.338 152.268 317.171 154.707 313.055 156.48C309.001 158.19 304.188 159.045 298.615 159.045ZM335.534 158V91.025H380.754V102.52H350.259V118.86H378.664V130.355H350.259V158H335.534ZM419.851 159.045C414.911 159.045 410.383 158.222 406.266 156.575C402.213 154.928 398.729 152.585 395.816 149.545C392.903 146.505 390.654 142.863 389.071 138.62C387.551 134.377 386.791 129.658 386.791 124.465C386.791 119.208 387.551 114.49 389.071 110.31C390.654 106.067 392.903 102.457 395.816 99.48C398.729 96.44 402.213 94.0967 406.266 92.45C410.383 90.8033 414.911 89.98 419.851 89.98C424.854 89.98 429.383 90.8033 433.436 92.45C437.489 94.0967 440.973 96.4083 443.886 99.385C446.799 102.362 449.048 105.972 450.631 110.215C452.214 114.458 453.006 119.177 453.006 124.37C453.006 129.627 452.214 134.377 450.631 138.62C449.048 142.863 446.799 146.505 443.886 149.545C440.973 152.585 437.489 154.928 433.436 156.575C429.383 158.222 424.854 159.045 419.851 159.045ZM419.851 146.505C423.651 146.505 426.849 145.65 429.446 143.94C432.043 142.167 434.038 139.633 435.431 136.34C436.888 132.983 437.616 129.025 437.616 124.465C437.616 119.842 436.919 115.883 435.526 112.59C434.133 109.297 432.106 106.795 429.446 105.085C426.786 103.375 423.588 102.52 419.851 102.52C416.178 102.52 413.011 103.375 410.351 105.085C407.691 106.795 405.664 109.297 404.271 112.59C402.878 115.883 402.181 119.842 402.181 124.465C402.181 129.025 402.878 132.983 404.271 136.34C405.664 139.633 407.691 142.167 410.351 143.94C413.011 145.65 416.178 146.505 419.851 146.505ZM464.396 158V91.025H494.986C502.46 91.025 508.223 92.83 512.276 96.44C516.33 100.05 518.356 105.085 518.356 111.545C518.356 115.725 517.438 119.335 515.601 122.375C513.765 125.415 511.105 127.758 507.621 129.405C504.201 131.052 499.99 131.875 494.986 131.875L495.746 130.26H499.641C502.301 130.26 504.613 130.925 506.576 132.255C508.603 133.522 510.345 135.485 511.801 138.145L522.631 158H506.386L494.796 136.625C494.163 135.485 493.435 134.598 492.611 133.965C491.788 133.268 490.838 132.793 489.761 132.54C488.748 132.223 487.608 132.065 486.341 132.065H479.121V158H464.396ZM479.121 121.425H492.326C496.253 121.425 499.198 120.633 501.161 119.05C503.188 117.467 504.201 115.092 504.201 111.925C504.201 108.822 503.188 106.478 501.161 104.895C499.198 103.312 496.253 102.52 492.326 102.52H479.121V121.425ZM530.734 158V91.025H542.989L567.214 135.105H563.984L588.114 91.025H600.179V158H586.784V113.54H588.874L569.494 147.93H561.229L541.754 113.445H544.034V158H530.734ZM606.067 158L636.847 91.025H648.722L679.502 158H664.682L656.702 139.38L662.592 143.465H622.977L628.867 139.38L620.982 158H606.067ZM642.642 106.7L630.482 135.675L627.917 131.97H657.652L655.087 135.675L642.832 106.7H642.642Z" fill="#013866"/>
<path d="M719.64 87C722.401 87 724.64 89.2386 724.64 92V114.84H747C749.761 114.84 752 117.078 752 119.84V126.64C752 129.401 749.761 131.64 747 131.64H724.64V154C724.64 156.761 722.401 159 719.64 159H712.84C710.079 159 707.84 156.761 707.84 154V131.64H685C682.239 131.64 680 129.401 680 126.64V119.84C680 117.078 682.239 114.84 685 114.84H707.84V92C707.84 89.2386 710.079 87.0001 712.84 87H719.64Z" fill="#30B8EC"/>
<path d="M664.641 0C749.891 0 819 69.1226 819 154.39C819 199.865 799.341 240.746 768.061 269V247.162C790.134 222.563 803.564 190.046 803.564 154.39C803.564 77.6494 741.366 15.439 664.641 15.439C622.756 15.439 585.201 33.9783 559.731 63.2998H540C568.082 24.9241 613.451 0 664.641 0Z" fill="#30B8EC"/>
<path d="M3.002 395V368.21H7.068L17.176 386.868H15.96L26.03 368.21H30.02V395H25.612V375.43H26.448L17.936 390.934H15.086L6.498 375.392H7.41V395H3.002ZM41.5782 395.38C40.2356 395.38 39.0322 395.127 37.9682 394.62C36.9296 394.088 36.1062 393.379 35.4982 392.492C34.9156 391.605 34.6242 390.605 34.6242 389.49C34.6242 388.122 34.9789 387.045 35.6882 386.26C36.3976 385.449 37.5502 384.867 39.1462 384.512C40.7422 384.157 42.8829 383.98 45.5682 383.98H47.4682V386.716H45.6062C44.4156 386.716 43.4149 386.767 42.6042 386.868C41.7936 386.944 41.1349 387.083 40.6282 387.286C40.1469 387.463 39.7922 387.717 39.5642 388.046C39.3616 388.375 39.2602 388.781 39.2602 389.262C39.2602 390.098 39.5516 390.782 40.1342 391.314C40.7169 391.846 41.5276 392.112 42.5662 392.112C43.4022 392.112 44.1369 391.922 44.7702 391.542C45.4289 391.137 45.9482 390.592 46.3282 389.908C46.7082 389.224 46.8982 388.439 46.8982 387.552V383.182C46.8982 381.915 46.6196 381.003 46.0622 380.446C45.5049 379.889 44.5676 379.61 43.2502 379.61C42.2116 379.61 41.1476 379.775 40.0582 380.104C38.9689 380.408 37.8669 380.889 36.7522 381.548L35.3842 378.318C36.0429 377.862 36.8156 377.469 37.7022 377.14C38.6142 376.785 39.5642 376.519 40.5522 376.342C41.5656 376.139 42.5156 376.038 43.4022 376.038C45.2262 376.038 46.7209 376.317 47.8862 376.874C49.0769 377.431 49.9636 378.28 50.5462 379.42C51.1289 380.535 51.4202 381.979 51.4202 383.752V395H46.9742V391.048H47.2782C47.1009 391.935 46.7462 392.707 46.2142 393.366C45.7076 393.999 45.0616 394.493 44.2762 394.848C43.4909 395.203 42.5916 395.38 41.5782 395.38ZM55.9375 372.428V367.792H61.2575V372.428H55.9375ZM56.2415 395V376.418H60.9915V395H56.2415ZM72.729 395.38C71.6904 395.38 70.677 395.291 69.689 395.114C68.7264 394.937 67.8397 394.696 67.029 394.392C66.2184 394.063 65.509 393.657 64.901 393.176L66.117 390.06C66.7504 390.465 67.4344 390.82 68.169 391.124C68.9037 391.428 69.6637 391.656 70.449 391.808C71.2344 391.96 72.007 392.036 72.767 392.036C73.983 392.036 74.8824 391.833 75.465 391.428C76.073 390.997 76.377 390.44 76.377 389.756C76.377 389.173 76.1744 388.73 75.769 388.426C75.389 388.097 74.8064 387.856 74.021 387.704L70.221 386.982C68.6504 386.678 67.447 386.108 66.611 385.272C65.8004 384.411 65.395 383.309 65.395 381.966C65.395 380.75 65.7244 379.699 66.383 378.812C67.067 377.925 68.0044 377.241 69.195 376.76C70.3857 376.279 71.7537 376.038 73.299 376.038C74.1857 376.038 75.047 376.127 75.883 376.304C76.719 376.456 77.5044 376.697 78.239 377.026C78.999 377.33 79.6577 377.735 80.215 378.242L78.923 381.358C78.4417 380.953 77.8844 380.611 77.251 380.332C76.6177 380.028 75.959 379.8 75.275 379.648C74.6164 379.471 73.9704 379.382 73.337 379.382C72.0957 379.382 71.171 379.597 70.563 380.028C69.9804 380.459 69.689 381.029 69.689 381.738C69.689 382.27 69.8664 382.713 70.221 383.068C70.5757 383.423 71.1204 383.663 71.855 383.79L75.655 384.512C77.3017 384.816 78.543 385.373 79.379 386.184C80.2404 386.995 80.671 388.084 80.671 389.452C80.671 390.693 80.3417 391.757 79.683 392.644C79.0244 393.531 78.0997 394.215 76.909 394.696C75.7184 395.152 74.325 395.38 72.729 395.38ZM94.4199 372.428V367.792H99.7399V372.428H94.4199ZM94.7239 395V376.418H99.4739V395H94.7239ZM104.409 395V376.418H109.045V380.142H108.627C109.185 378.799 110.046 377.786 111.211 377.102C112.402 376.393 113.745 376.038 115.239 376.038C116.734 376.038 117.963 376.317 118.925 376.874C119.888 377.431 120.61 378.28 121.091 379.42C121.573 380.535 121.813 381.953 121.813 383.676V395H117.063V383.904C117.063 382.941 116.937 382.156 116.683 381.548C116.455 380.94 116.088 380.497 115.581 380.218C115.1 379.914 114.479 379.762 113.719 379.762C112.807 379.762 112.009 379.965 111.325 380.37C110.641 380.75 110.109 381.307 109.729 382.042C109.349 382.751 109.159 383.587 109.159 384.55V395H104.409ZM135.112 395.38C133.187 395.38 131.515 394.987 130.096 394.202C128.677 393.417 127.575 392.302 126.79 390.858C126.005 389.389 125.612 387.666 125.612 385.69C125.612 383.714 126.005 382.004 126.79 380.56C127.575 379.116 128.677 378.001 130.096 377.216C131.515 376.431 133.187 376.038 135.112 376.038C137.037 376.038 138.709 376.431 140.128 377.216C141.547 378.001 142.649 379.116 143.434 380.56C144.219 382.004 144.612 383.714 144.612 385.69C144.612 387.666 144.219 389.389 143.434 390.858C142.649 392.302 141.547 393.417 140.128 394.202C138.709 394.987 137.037 395.38 135.112 395.38ZM135.112 391.77C136.531 391.77 137.671 391.263 138.532 390.25C139.393 389.211 139.824 387.691 139.824 385.69C139.824 383.663 139.393 382.156 138.532 381.168C137.671 380.155 136.531 379.648 135.112 379.648C133.693 379.648 132.553 380.155 131.692 381.168C130.831 382.156 130.4 383.663 130.4 385.69C130.4 387.691 130.831 389.211 131.692 390.25C132.553 391.263 133.693 391.77 135.112 391.77ZM153.633 395L145.577 376.418H150.631L156.369 390.82H155.229L161.157 376.418H165.907L157.737 395H153.633ZM173.947 395.38C172.605 395.38 171.401 395.127 170.337 394.62C169.299 394.088 168.475 393.379 167.867 392.492C167.285 391.605 166.993 390.605 166.993 389.49C166.993 388.122 167.348 387.045 168.057 386.26C168.767 385.449 169.919 384.867 171.515 384.512C173.111 384.157 175.252 383.98 177.937 383.98H179.837V386.716H177.975C176.785 386.716 175.784 386.767 174.973 386.868C174.163 386.944 173.504 387.083 172.997 387.286C172.516 387.463 172.161 387.717 171.933 388.046C171.731 388.375 171.629 388.781 171.629 389.262C171.629 390.098 171.921 390.782 172.503 391.314C173.086 391.846 173.897 392.112 174.935 392.112C175.771 392.112 176.506 391.922 177.139 391.542C177.798 391.137 178.317 390.592 178.697 389.908C179.077 389.224 179.267 388.439 179.267 387.552V383.182C179.267 381.915 178.989 381.003 178.431 380.446C177.874 379.889 176.937 379.61 175.619 379.61C174.581 379.61 173.517 379.775 172.427 380.104C171.338 380.408 170.236 380.889 169.121 381.548L167.753 378.318C168.412 377.862 169.185 377.469 170.071 377.14C170.983 376.785 171.933 376.519 172.921 376.342C173.935 376.139 174.885 376.038 175.771 376.038C177.595 376.038 179.09 376.317 180.255 376.874C181.446 377.431 182.333 378.28 182.915 379.42C183.498 380.535 183.789 381.979 183.789 383.752V395H179.343V391.048H179.647C179.47 391.935 179.115 392.707 178.583 393.366C178.077 393.999 177.431 394.493 176.645 394.848C175.86 395.203 174.961 395.38 173.947 395.38ZM197.199 395.38C195.248 395.38 193.551 394.987 192.107 394.202C190.663 393.391 189.548 392.251 188.763 390.782C187.977 389.313 187.585 387.59 187.585 385.614C187.585 383.638 187.977 381.941 188.763 380.522C189.548 379.078 190.663 377.976 192.107 377.216C193.551 376.431 195.248 376.038 197.199 376.038C198.389 376.038 199.567 376.228 200.733 376.608C201.898 376.988 202.861 377.52 203.621 378.204L202.215 381.51C201.556 380.927 200.809 380.484 199.973 380.18C199.162 379.876 198.377 379.724 197.617 379.724C195.97 379.724 194.691 380.243 193.779 381.282C192.892 382.295 192.449 383.752 192.449 385.652C192.449 387.527 192.892 389.009 193.779 390.098C194.691 391.162 195.97 391.694 197.617 391.694C198.351 391.694 199.137 391.542 199.973 391.238C200.809 390.934 201.556 390.478 202.215 389.87L203.621 393.214C202.861 393.873 201.885 394.405 200.695 394.81C199.529 395.19 198.364 395.38 197.199 395.38ZM196.933 402.41C196.198 402.41 195.489 402.334 194.805 402.182C194.121 402.055 193.538 401.865 193.057 401.612L193.741 399.484C194.197 399.687 194.64 399.839 195.071 399.94C195.527 400.067 196.021 400.13 196.553 400.13C197.211 400.13 197.718 400.029 198.073 399.826C198.427 399.649 198.605 399.37 198.605 398.99C198.605 398.711 198.491 398.496 198.263 398.344C198.06 398.192 197.705 398.116 197.199 398.116C196.945 398.116 196.705 398.129 196.477 398.154C196.249 398.179 195.97 398.243 195.641 398.344L194.919 397.66L195.413 394.24H197.959L197.465 397.128L196.249 396.71C196.553 396.609 196.857 396.533 197.161 396.482C197.465 396.431 197.743 396.406 197.997 396.406C198.706 396.406 199.314 396.507 199.821 396.71C200.327 396.938 200.72 397.255 200.999 397.66C201.303 398.065 201.455 398.559 201.455 399.142C201.455 399.801 201.265 400.371 200.885 400.852C200.505 401.359 199.973 401.739 199.289 401.992C198.605 402.271 197.819 402.41 196.933 402.41ZM212.541 395.38C211.198 395.38 209.995 395.127 208.931 394.62C207.892 394.088 207.069 393.379 206.461 392.492C205.878 391.605 205.587 390.605 205.587 389.49C205.587 388.122 205.942 387.045 206.651 386.26C207.36 385.449 208.513 384.867 210.109 384.512C211.705 384.157 213.846 383.98 216.531 383.98H218.431V386.716H216.569C215.378 386.716 214.378 386.767 213.567 386.868C212.756 386.944 212.098 387.083 211.591 387.286C211.11 387.463 210.755 387.717 210.527 388.046C210.324 388.375 210.223 388.781 210.223 389.262C210.223 390.098 210.514 390.782 211.097 391.314C211.68 391.846 212.49 392.112 213.529 392.112C214.365 392.112 215.1 391.922 215.733 391.542C216.392 391.137 216.911 390.592 217.291 389.908C217.671 389.224 217.861 388.439 217.861 387.552V383.182C217.861 381.915 217.582 381.003 217.025 380.446C216.468 379.889 215.53 379.61 214.213 379.61C213.174 379.61 212.11 379.775 211.021 380.104C209.932 380.408 208.83 380.889 207.715 381.548L206.347 378.318C207.006 377.862 207.778 377.469 208.665 377.14C209.577 376.785 210.527 376.519 211.515 376.342C212.528 376.139 213.478 376.038 214.365 376.038C216.189 376.038 217.684 376.317 218.849 376.874C220.04 377.431 220.926 378.28 221.509 379.42C222.092 380.535 222.383 381.979 222.383 383.752V395H217.937V391.048H218.241C218.064 391.935 217.709 392.707 217.177 393.366C216.67 393.999 216.024 394.493 215.239 394.848C214.454 395.203 213.554 395.38 212.541 395.38ZM209.539 372.808L207.183 372.656C207.31 370.908 207.778 369.54 208.589 368.552C209.4 367.539 210.451 367.032 211.743 367.032C212.326 367.032 212.845 367.159 213.301 367.412C213.782 367.64 214.327 367.982 214.935 368.438C215.492 368.843 215.936 369.135 216.265 369.312C216.594 369.464 216.924 369.54 217.253 369.54C217.912 369.54 218.431 369.325 218.811 368.894C219.191 368.438 219.444 367.767 219.571 366.88L221.927 367.032C221.826 368.78 221.37 370.161 220.559 371.174C219.748 372.162 218.697 372.656 217.405 372.656C216.873 372.656 216.366 372.555 215.885 372.352C215.429 372.149 214.859 371.782 214.175 371.25C213.668 370.845 213.25 370.566 212.921 370.414C212.592 370.237 212.25 370.148 211.895 370.148C211.262 370.148 210.742 370.363 210.337 370.794C209.957 371.225 209.691 371.896 209.539 372.808ZM235.678 395.38C233.753 395.38 232.081 394.987 230.662 394.202C229.244 393.417 228.142 392.302 227.356 390.858C226.571 389.389 226.178 387.666 226.178 385.69C226.178 383.714 226.571 382.004 227.356 380.56C228.142 379.116 229.244 378.001 230.662 377.216C232.081 376.431 233.753 376.038 235.678 376.038C237.604 376.038 239.276 376.431 240.694 377.216C242.113 378.001 243.215 379.116 244 380.56C244.786 382.004 245.178 383.714 245.178 385.69C245.178 387.666 244.786 389.389 244 390.858C243.215 392.302 242.113 393.417 240.694 394.202C239.276 394.987 237.604 395.38 235.678 395.38ZM235.678 391.77C237.097 391.77 238.237 391.263 239.098 390.25C239.96 389.211 240.39 387.691 240.39 385.69C240.39 383.663 239.96 382.156 239.098 381.168C238.237 380.155 237.097 379.648 235.678 379.648C234.26 379.648 233.12 380.155 232.258 381.168C231.397 382.156 230.966 383.663 230.966 385.69C230.966 387.691 231.397 389.211 232.258 390.25C233.12 391.263 234.26 391.77 235.678 391.77ZM247.976 395V389.718H253.296V395H247.976Z" fill="#013866"/>
<path d="M275.002 395V368.21H279.068L289.176 386.868H287.96L298.03 368.21H302.02V395H297.612V375.43H298.448L289.936 390.934H287.086L278.498 375.392H279.41V395H275.002ZM313.578 395.38C312.236 395.38 311.032 395.127 309.968 394.62C308.93 394.088 308.106 393.379 307.498 392.492C306.916 391.605 306.624 390.605 306.624 389.49C306.624 388.122 306.979 387.045 307.688 386.26C308.398 385.449 309.55 384.867 311.146 384.512C312.742 384.157 314.883 383.98 317.568 383.98H319.468V386.716H317.606C316.416 386.716 315.415 386.767 314.604 386.868C313.794 386.944 313.135 387.083 312.628 387.286C312.147 387.463 311.792 387.717 311.564 388.046C311.362 388.375 311.26 388.781 311.26 389.262C311.26 390.098 311.552 390.782 312.134 391.314C312.717 391.846 313.528 392.112 314.566 392.112C315.402 392.112 316.137 391.922 316.77 391.542C317.429 391.137 317.948 390.592 318.328 389.908C318.708 389.224 318.898 388.439 318.898 387.552V383.182C318.898 381.915 318.62 381.003 318.062 380.446C317.505 379.889 316.568 379.61 315.25 379.61C314.212 379.61 313.148 379.775 312.058 380.104C310.969 380.408 309.867 380.889 308.752 381.548L307.384 378.318C308.043 377.862 308.816 377.469 309.702 377.14C310.614 376.785 311.564 376.519 312.552 376.342C313.566 376.139 314.516 376.038 315.402 376.038C317.226 376.038 318.721 376.317 319.886 376.874C321.077 377.431 321.964 378.28 322.546 379.42C323.129 380.535 323.42 381.979 323.42 383.752V395H318.974V391.048H319.278C319.101 391.935 318.746 392.707 318.214 393.366C317.708 393.999 317.062 394.493 316.276 394.848C315.491 395.203 314.592 395.38 313.578 395.38ZM327.937 372.428V367.792H333.257V372.428H327.937ZM328.241 395V376.418H332.991V395H328.241ZM344.729 395.38C343.69 395.38 342.677 395.291 341.689 395.114C340.726 394.937 339.84 394.696 339.029 394.392C338.218 394.063 337.509 393.657 336.901 393.176L338.117 390.06C338.75 390.465 339.434 390.82 340.169 391.124C340.904 391.428 341.664 391.656 342.449 391.808C343.234 391.96 344.007 392.036 344.767 392.036C345.983 392.036 346.882 391.833 347.465 391.428C348.073 390.997 348.377 390.44 348.377 389.756C348.377 389.173 348.174 388.73 347.769 388.426C347.389 388.097 346.806 387.856 346.021 387.704L342.221 386.982C340.65 386.678 339.447 386.108 338.611 385.272C337.8 384.411 337.395 383.309 337.395 381.966C337.395 380.75 337.724 379.699 338.383 378.812C339.067 377.925 340.004 377.241 341.195 376.76C342.386 376.279 343.754 376.038 345.299 376.038C346.186 376.038 347.047 376.127 347.883 376.304C348.719 376.456 349.504 376.697 350.239 377.026C350.999 377.33 351.658 377.735 352.215 378.242L350.923 381.358C350.442 380.953 349.884 380.611 349.251 380.332C348.618 380.028 347.959 379.8 347.275 379.648C346.616 379.471 345.97 379.382 345.337 379.382C344.096 379.382 343.171 379.597 342.563 380.028C341.98 380.459 341.689 381.029 341.689 381.738C341.689 382.27 341.866 382.713 342.221 383.068C342.576 383.423 343.12 383.663 343.855 383.79L347.655 384.512C349.302 384.816 350.543 385.373 351.379 386.184C352.24 386.995 352.671 388.084 352.671 389.452C352.671 390.693 352.342 391.757 351.683 392.644C351.024 393.531 350.1 394.215 348.909 394.696C347.718 395.152 346.325 395.38 344.729 395.38ZM375.882 395.38C373.779 395.38 371.968 394.987 370.448 394.202C368.928 393.417 367.75 392.302 366.914 390.858C366.103 389.414 365.698 387.704 365.698 385.728C365.698 383.803 366.091 382.118 366.876 380.674C367.687 379.23 368.789 378.103 370.182 377.292C371.601 376.456 373.209 376.038 375.008 376.038C376.781 376.038 378.301 376.418 379.568 377.178C380.835 377.938 381.81 379.015 382.494 380.408C383.203 381.801 383.558 383.461 383.558 385.386V386.792H369.536V384.056H380.214L379.606 384.626C379.606 382.903 379.226 381.586 378.466 380.674C377.706 379.737 376.617 379.268 375.198 379.268C374.134 379.268 373.222 379.521 372.462 380.028C371.727 380.509 371.157 381.206 370.752 382.118C370.372 383.005 370.182 384.069 370.182 385.31V385.576C370.182 386.969 370.397 388.122 370.828 389.034C371.259 389.946 371.905 390.63 372.766 391.086C373.627 391.542 374.691 391.77 375.958 391.77C376.997 391.77 378.035 391.618 379.074 391.314C380.113 390.985 381.063 390.478 381.924 389.794L383.254 392.986C382.367 393.721 381.253 394.303 379.91 394.734C378.567 395.165 377.225 395.38 375.882 395.38ZM388.499 395V379.99H384.927V376.418H389.867L388.499 377.672V376.38C388.499 373.745 389.183 371.757 390.551 370.414C391.945 369.071 394.098 368.311 397.011 368.134L398.683 368.058L398.911 371.554L397.429 371.63C396.416 371.681 395.605 371.871 394.997 372.2C394.389 372.504 393.946 372.935 393.667 373.492C393.389 374.049 393.249 374.759 393.249 375.62V376.874V376.418H405.523V395H400.773V379.99H393.249V395H388.499ZM400.507 372.428V367.792H405.789V372.428H400.507ZM419.064 395.38C417.113 395.38 415.416 394.987 413.972 394.202C412.528 393.391 411.413 392.251 410.628 390.782C409.843 389.313 409.45 387.59 409.45 385.614C409.45 383.638 409.843 381.941 410.628 380.522C411.413 379.078 412.528 377.976 413.972 377.216C415.416 376.431 417.113 376.038 419.064 376.038C420.255 376.038 421.433 376.228 422.598 376.608C423.763 376.988 424.726 377.52 425.486 378.204L424.08 381.51C423.421 380.927 422.674 380.484 421.838 380.18C421.027 379.876 420.242 379.724 419.482 379.724C417.835 379.724 416.556 380.243 415.644 381.282C414.757 382.295 414.314 383.752 414.314 385.652C414.314 387.527 414.757 389.009 415.644 390.098C416.556 391.162 417.835 391.694 419.482 391.694C420.217 391.694 421.002 391.542 421.838 391.238C422.674 390.934 423.421 390.478 424.08 389.87L425.486 393.214C424.726 393.873 423.751 394.405 422.56 394.81C421.395 395.19 420.229 395.38 419.064 395.38ZM428.096 372.428V367.792H433.416V372.428H428.096ZM428.4 395V376.418H433.15V395H428.4ZM447.243 395.38C445.141 395.38 443.329 394.987 441.809 394.202C440.289 393.417 439.111 392.302 438.275 390.858C437.465 389.414 437.059 387.704 437.059 385.728C437.059 383.803 437.452 382.118 438.237 380.674C439.048 379.23 440.15 378.103 441.543 377.292C442.962 376.456 444.571 376.038 446.369 376.038C448.143 376.038 449.663 376.418 450.929 377.178C452.196 377.938 453.171 379.015 453.855 380.408C454.565 381.801 454.919 383.461 454.919 385.386V386.792H440.897V384.056H451.575L450.967 384.626C450.967 382.903 450.587 381.586 449.827 380.674C449.067 379.737 447.978 379.268 446.559 379.268C445.495 379.268 444.583 379.521 443.823 380.028C443.089 380.509 442.519 381.206 442.113 382.118C441.733 383.005 441.543 384.069 441.543 385.31V385.576C441.543 386.969 441.759 388.122 442.189 389.034C442.62 389.946 443.266 390.63 444.127 391.086C444.989 391.542 446.053 391.77 447.319 391.77C448.358 391.77 449.397 391.618 450.435 391.314C451.474 390.985 452.424 390.478 453.285 389.794L454.615 392.986C453.729 393.721 452.614 394.303 451.271 394.734C449.929 395.165 448.586 395.38 447.243 395.38ZM440.137 373.948L444.317 366.234H448.497L452.677 373.948H449.637L446.407 368.932L443.177 373.948H440.137ZM458.681 395V376.418H463.317V380.142H462.899C463.456 378.799 464.318 377.786 465.483 377.102C466.674 376.393 468.016 376.038 469.511 376.038C471.006 376.038 472.234 376.317 473.197 376.874C474.16 377.431 474.882 378.28 475.363 379.42C475.844 380.535 476.085 381.953 476.085 383.676V395H471.335V383.904C471.335 382.941 471.208 382.156 470.955 381.548C470.727 380.94 470.36 380.497 469.853 380.218C469.372 379.914 468.751 379.762 467.991 379.762C467.079 379.762 466.281 379.965 465.597 380.37C464.913 380.75 464.381 381.307 464.001 382.042C463.621 382.751 463.431 383.587 463.431 384.55V395H458.681ZM489.497 395.38C487.547 395.38 485.849 394.987 484.405 394.202C482.961 393.391 481.847 392.251 481.061 390.782C480.276 389.313 479.883 387.59 479.883 385.614C479.883 383.638 480.276 381.941 481.061 380.522C481.847 379.078 482.961 377.976 484.405 377.216C485.849 376.431 487.547 376.038 489.497 376.038C490.688 376.038 491.866 376.228 493.031 376.608C494.197 376.988 495.159 377.52 495.919 378.204L494.513 381.51C493.855 380.927 493.107 380.484 492.271 380.18C491.461 379.876 490.675 379.724 489.915 379.724C488.269 379.724 486.989 380.243 486.077 381.282C485.191 382.295 484.747 383.752 484.747 385.652C484.747 387.527 485.191 389.009 486.077 390.098C486.989 391.162 488.269 391.694 489.915 391.694C490.65 391.694 491.435 391.542 492.271 391.238C493.107 390.934 493.855 390.478 494.513 389.87L495.919 393.214C495.159 393.873 494.184 394.405 492.993 394.81C491.828 395.19 490.663 395.38 489.497 395.38ZM498.529 372.428V367.792H503.849V372.428H498.529ZM498.833 395V376.418H503.583V395H498.833ZM514.637 395.38C513.294 395.38 512.091 395.127 511.027 394.62C509.988 394.088 509.165 393.379 508.557 392.492C507.974 391.605 507.683 390.605 507.683 389.49C507.683 388.122 508.037 387.045 508.747 386.26C509.456 385.449 510.609 384.867 512.205 384.512C513.801 384.157 515.941 383.98 518.627 383.98H520.527V386.716H518.665C517.474 386.716 516.473 386.767 515.663 386.868C514.852 386.944 514.193 387.083 513.687 387.286C513.205 387.463 512.851 387.717 512.623 388.046C512.42 388.375 512.319 388.781 512.319 389.262C512.319 390.098 512.61 390.782 513.193 391.314C513.775 391.846 514.586 392.112 515.625 392.112C516.461 392.112 517.195 391.922 517.829 391.542C518.487 391.137 519.007 390.592 519.387 389.908C519.767 389.224 519.957 388.439 519.957 387.552V383.182C519.957 381.915 519.678 381.003 519.121 380.446C518.563 379.889 517.626 379.61 516.309 379.61C515.27 379.61 514.206 379.775 513.117 380.104C512.027 380.408 510.925 380.889 509.811 381.548L508.443 378.318C509.101 377.862 509.874 377.469 510.761 377.14C511.673 376.785 512.623 376.519 513.611 376.342C514.624 376.139 515.574 376.038 516.461 376.038C518.285 376.038 519.779 376.317 520.945 376.874C522.135 377.431 523.022 378.28 523.605 379.42C524.187 380.535 524.479 381.979 524.479 383.752V395H520.033V391.048H520.337C520.159 391.935 519.805 392.707 519.273 393.366C518.766 393.999 518.12 394.493 517.335 394.848C516.549 395.203 515.65 395.38 514.637 395.38ZM528.882 395V389.718H534.202V395H528.882Z" fill="#013866"/>
<path d="M556.002 395V368.21H560.068L570.176 386.868H568.96L579.03 368.21H583.02V395H578.612V375.43H579.448L570.936 390.934H568.086L559.498 375.392H560.41V395H556.002ZM594.578 395.38C593.236 395.38 592.032 395.127 590.968 394.62C589.93 394.088 589.106 393.379 588.498 392.492C587.916 391.605 587.624 390.605 587.624 389.49C587.624 388.122 587.979 387.045 588.688 386.26C589.398 385.449 590.55 384.867 592.146 384.512C593.742 384.157 595.883 383.98 598.568 383.98H600.468V386.716H598.606C597.416 386.716 596.415 386.767 595.604 386.868C594.794 386.944 594.135 387.083 593.628 387.286C593.147 387.463 592.792 387.717 592.564 388.046C592.362 388.375 592.26 388.781 592.26 389.262C592.26 390.098 592.552 390.782 593.134 391.314C593.717 391.846 594.528 392.112 595.566 392.112C596.402 392.112 597.137 391.922 597.77 391.542C598.429 391.137 598.948 390.592 599.328 389.908C599.708 389.224 599.898 388.439 599.898 387.552V383.182C599.898 381.915 599.62 381.003 599.062 380.446C598.505 379.889 597.568 379.61 596.25 379.61C595.212 379.61 594.148 379.775 593.058 380.104C591.969 380.408 590.867 380.889 589.752 381.548L588.384 378.318C589.043 377.862 589.816 377.469 590.702 377.14C591.614 376.785 592.564 376.519 593.552 376.342C594.566 376.139 595.516 376.038 596.402 376.038C598.226 376.038 599.721 376.317 600.886 376.874C602.077 377.431 602.964 378.28 603.546 379.42C604.129 380.535 604.42 381.979 604.42 383.752V395H599.974V391.048H600.278C600.101 391.935 599.746 392.707 599.214 393.366C598.708 393.999 598.062 394.493 597.276 394.848C596.491 395.203 595.592 395.38 594.578 395.38ZM608.937 372.428V367.792H614.257V372.428H608.937ZM609.241 395V376.418H613.991V395H609.241ZM625.729 395.38C624.69 395.38 623.677 395.291 622.689 395.114C621.726 394.937 620.84 394.696 620.029 394.392C619.218 394.063 618.509 393.657 617.901 393.176L619.117 390.06C619.75 390.465 620.434 390.82 621.169 391.124C621.904 391.428 622.664 391.656 623.449 391.808C624.234 391.96 625.007 392.036 625.767 392.036C626.983 392.036 627.882 391.833 628.465 391.428C629.073 390.997 629.377 390.44 629.377 389.756C629.377 389.173 629.174 388.73 628.769 388.426C628.389 388.097 627.806 387.856 627.021 387.704L623.221 386.982C621.65 386.678 620.447 386.108 619.611 385.272C618.8 384.411 618.395 383.309 618.395 381.966C618.395 380.75 618.724 379.699 619.383 378.812C620.067 377.925 621.004 377.241 622.195 376.76C623.386 376.279 624.754 376.038 626.299 376.038C627.186 376.038 628.047 376.127 628.883 376.304C629.719 376.456 630.504 376.697 631.239 377.026C631.999 377.33 632.658 377.735 633.215 378.242L631.923 381.358C631.442 380.953 630.884 380.611 630.251 380.332C629.618 380.028 628.959 379.8 628.275 379.648C627.616 379.471 626.97 379.382 626.337 379.382C625.096 379.382 624.171 379.597 623.563 380.028C622.98 380.459 622.689 381.029 622.689 381.738C622.689 382.27 622.866 382.713 623.221 383.068C623.576 383.423 624.12 383.663 624.855 383.79L628.655 384.512C630.302 384.816 631.543 385.373 632.379 386.184C633.24 386.995 633.671 388.084 633.671 389.452C633.671 390.693 633.342 391.757 632.683 392.644C632.024 393.531 631.1 394.215 629.909 394.696C628.718 395.152 627.325 395.38 625.729 395.38ZM648.978 395V379.99H645.406V376.418H650.346L648.978 377.672V376.38C648.978 373.745 649.662 371.757 651.03 370.414C652.423 369.071 654.577 368.311 657.49 368.134L659.352 368.02L659.656 371.516L657.908 371.63C656.895 371.681 656.084 371.871 655.476 372.2C654.868 372.504 654.425 372.935 654.146 373.492C653.867 374.049 653.728 374.759 653.728 375.62V377.026L653.12 376.418H658.782V379.99H653.728V395H648.978ZM668.292 395.38C666.746 395.38 665.467 395.101 664.454 394.544C663.44 393.961 662.68 393.1 662.174 391.96C661.692 390.82 661.452 389.401 661.452 387.704V376.418H666.202V387.78C666.202 388.641 666.316 389.363 666.544 389.946C666.797 390.529 667.164 390.959 667.646 391.238C668.152 391.517 668.786 391.656 669.546 391.656C670.407 391.656 671.154 391.466 671.788 391.086C672.446 390.681 672.953 390.123 673.308 389.414C673.688 388.679 673.878 387.831 673.878 386.868V376.418H678.628V395H673.992V391.124H674.524C673.992 392.492 673.181 393.543 672.092 394.278C671.028 395.013 669.761 395.38 668.292 395.38ZM692.084 395.38C689.601 395.38 687.752 394.759 686.536 393.518C685.32 392.277 684.712 390.465 684.712 388.084V379.99H681.14V376.418H684.712V370.87H689.462V376.418H695.086V379.99H689.462V387.818C689.462 389.034 689.728 389.946 690.26 390.554C690.792 391.162 691.653 391.466 692.844 391.466C693.198 391.466 693.566 391.428 693.946 391.352C694.326 391.251 694.718 391.149 695.124 391.048L695.846 394.544C695.39 394.797 694.807 395 694.098 395.152C693.414 395.304 692.742 395.38 692.084 395.38ZM704.882 395.38C703.336 395.38 702.057 395.101 701.044 394.544C700.03 393.961 699.27 393.1 698.764 391.96C698.282 390.82 698.042 389.401 698.042 387.704V376.418H702.792V387.78C702.792 388.641 702.906 389.363 703.134 389.946C703.387 390.529 703.754 390.959 704.236 391.238C704.742 391.517 705.376 391.656 706.136 391.656C706.997 391.656 707.744 391.466 708.378 391.086C709.036 390.681 709.543 390.123 709.898 389.414C710.278 388.679 710.468 387.831 710.468 386.868V376.418H715.218V395H710.582V391.124H711.114C710.582 392.492 709.771 393.543 708.682 394.278C707.618 395.013 706.351 395.38 704.882 395.38ZM720.161 395V376.418H724.797V380.902H724.417C724.772 379.382 725.469 378.229 726.507 377.444C727.546 376.633 728.927 376.165 730.649 376.038L732.093 375.924L732.397 379.952L729.661 380.218C728.116 380.37 726.951 380.851 726.165 381.662C725.38 382.447 724.987 383.562 724.987 385.006V395H720.161ZM743.219 395.38C741.294 395.38 739.622 394.987 738.203 394.202C736.785 393.417 735.683 392.302 734.897 390.858C734.112 389.389 733.719 387.666 733.719 385.69C733.719 383.714 734.112 382.004 734.897 380.56C735.683 379.116 736.785 378.001 738.203 377.216C739.622 376.431 741.294 376.038 743.219 376.038C745.145 376.038 746.817 376.431 748.235 377.216C749.654 378.001 750.756 379.116 751.541 380.56C752.327 382.004 752.719 383.714 752.719 385.69C752.719 387.666 752.327 389.389 751.541 390.858C750.756 392.302 749.654 393.417 748.235 394.202C746.817 394.987 745.145 395.38 743.219 395.38ZM743.219 391.77C744.638 391.77 745.778 391.263 746.639 390.25C747.501 389.211 747.931 387.691 747.931 385.69C747.931 383.663 747.501 382.156 746.639 381.168C745.778 380.155 744.638 379.648 743.219 379.648C741.801 379.648 740.661 380.155 739.799 381.168C738.938 382.156 738.507 383.663 738.507 385.69C738.507 387.691 738.938 389.211 739.799 390.25C740.661 391.263 741.801 391.77 743.219 391.77ZM755.517 395V389.718H760.837V395H755.517Z" fill="#013866"/>
</svg>
