<svg width="832" height="547" viewBox="0 0 832 547" fill="none" xmlns="http://www.w3.org/2000/svg">
<path d="M38.9973 134C42.4967 133.966 78.0035 133.265 126.509 134C175.289 134.74 204.502 169.734 204.502 209.5V284.5C204.502 322.308 169.744 359 120.002 359C70.511 359 39.9975 359.06 37.4894 358.999C36.0814 358.965 34.358 358.14 32.9963 356.91C31.6284 355.675 30.5281 353.943 30.5021 352.006C30.4786 350.248 30.4787 334.244 30.4846 318.687C30.4875 310.906 30.4916 303.233 30.4953 297.507C30.4971 294.644 30.499 292.267 30.5002 290.606C30.5008 289.775 30.5008 289.124 30.5012 288.68C30.5012 288.616 30.5011 288.556 30.5012 288.5H2.50214C2.26601 288.5 1.99671 288.405 1.77557 288.307C1.5352 288.2 1.27477 288.054 1.03339 287.888C0.793872 287.724 0.555842 287.528 0.371277 287.319C0.202752 287.127 0.0053274 286.841 0.00213623 286.504C-0.00358316 285.884 0.002159 264.159 0.00213623 263C0.00223935 261.538 1.2543 260.51 2.49823 260.5C3.00238 260.496 10.2553 260.496 17.3771 260.497C20.9395 260.498 24.471 260.499 27.1115 260.499H31.0021V141.5C31.0022 139.804 32.1105 137.94 33.5939 136.526C35.0845 135.104 37.0757 134.019 38.9973 134ZM70.0021 169.5V322.5H124.502C132.657 322.5 143.141 317.931 151.57 311.012C159.995 304.095 166.502 294.717 166.502 285V209.5C166.502 197.536 159.123 187.533 150.504 180.549C146.188 177.052 141.541 174.295 137.307 172.41C133.085 170.531 129.229 169.5 126.502 169.5H70.0021Z" fill="#013866"/>
<path d="M242.751 247C242.099 211.015 279.937 187.786 313.002 189.5C347.04 188.329 389.589 208.489 389.502 247V277.5C390.025 283.497 384.301 288.601 378.505 288.5C345.337 288.666 312.169 288.831 279.002 288.997C279.002 294.498 279.002 299.999 279.002 305.49C279.844 322.23 297.135 332.65 313.024 332.5C330.839 333.812 348.784 325.065 357.278 308.553C359.477 307.982 361.159 308.376 363.056 308.503L363.255 308.568L386.255 322.068L386.431 322.245C387.424 324.136 387.376 326.387 386.45 328.222C371.886 355.214 338.923 365.086 309.98 364.042C309.485 364.031 308.986 364.017 308.485 364L308.464 363.998C294.988 363.758 281.361 359.375 270.035 351.859C265.747 349.123 262.145 346.075 259.12 342.885C249.501 333.1 243.175 320.414 242.759 305.898C242.756 305.823 242.755 305.758 242.754 305.704C242.753 305.684 242.753 305.637 242.752 305.578C242.751 305.529 242.751 305.502 242.751 305.5V289H224.365C223.678 288.977 222.927 288.574 222.568 287.979C222.168 287.35 222.03 286.704 222.002 286V263C222.033 262.329 222.225 261.724 222.699 261.207C223.173 260.692 223.893 260.491 224.502 260.5H242.751V247ZM314.502 220C296.854 220 287.938 226.693 283.46 233.475C281.23 236.85 280.117 240.224 279.56 242.752C279.282 244.017 279.142 245.072 279.072 245.814C279.037 246.186 279.019 246.479 279.01 246.681C279.006 246.781 279.004 246.859 279.003 246.913C279.002 246.94 279.002 246.961 279.002 246.976V246.999C279.002 247 279.002 247 279.502 247H279.002V261H353.002V246.972L352.999 246.943L352.502 247C352.999 246.944 352.999 246.943 352.999 246.942L352.998 246.941C352.998 246.94 352.998 246.938 352.998 246.937C352.997 246.932 352.997 246.926 352.996 246.919C352.994 246.905 352.992 246.884 352.988 246.857C352.981 246.804 352.97 246.726 352.954 246.625C352.922 246.423 352.871 246.13 352.794 245.76C352.64 245.018 352.382 243.964 351.961 242.701C351.119 240.176 349.626 236.811 347.022 233.444C341.798 226.691 332.148 220 314.502 220Z" fill="#013866"/>
<rect x="426.502" y="124" width="36" height="235" rx="5" fill="#013866"/>
<path d="M505.808 202.039C532.098 190.985 549.437 189.76 581.506 190H581.526L581.548 190.002C598.94 191.598 611.204 194.852 620.426 202.487C629.647 210.121 635.748 222.071 640.983 240.866L641.002 240.932V299.508C640.742 315.548 638.288 326.619 632.938 335.4C627.589 344.178 619.383 350.605 607.755 357.431L607.71 357.458L607.659 357.475C596.983 361.015 588.023 363.2 577.415 363.529C566.938 363.853 554.881 362.364 537.997 358.62L537.502 423.004L537.501 423.105L537.462 423.197C536.833 424.664 536.232 425.768 535.429 426.736C534.627 427.704 533.642 428.512 532.278 429.416L532.152 429.5H506.38L506.271 429.444C504.779 428.669 503.693 427.927 502.802 426.953C501.914 425.98 501.246 424.803 500.544 423.201L500.502 423.105V211.959L500.509 211.918C500.932 209.358 501.475 207.566 502.299 206.078C503.124 204.587 504.213 203.434 505.668 202.128L505.73 202.072L505.808 202.039ZM575.171 222.88C566.015 222.325 559.266 222.51 546.463 223.501L546.408 223.505L546.354 223.522C541.32 225.071 539.079 226.175 536.645 228.649L536.502 228.795V325.393L536.885 325.486C558.839 330.799 574.344 332.59 585.191 329.087C590.64 327.328 594.907 324.236 598.219 319.614C601.522 315.003 603.858 308.889 605.491 301.102L605.502 301.051V247.428L605.482 247.36C603.037 238.978 600.104 233.557 595.652 229.895C591.208 226.24 585.314 224.393 577.085 223.006L577.06 223.002L577.036 223L575.171 222.88Z" fill="#013866"/>
<path d="M712.502 194.5C714.215 195.424 714.779 196.178 715.002 198V353.5C713.011 357.238 711.11 358.516 706.002 359H684.502C680.332 357.521 678.863 356.028 678.002 352V222.5H660.502C659.414 221.75 659.006 221.18 658.502 220V197C658.929 195.637 659.383 195.108 660.502 194.5H712.502ZM705.502 134C711.025 134 715.502 138.477 715.502 144V163C715.502 168.523 711.025 173 705.502 173H686.502C680.979 173 676.502 168.523 676.502 163V144C676.502 138.477 680.979 134 686.502 134H705.502Z" fill="#013866"/>
<path d="M613.333 0C734.099 0.000127883 832 91.7618 832 204.955C832 266.35 803.194 321.437 757.564 359V313.651C783.19 283.833 798.529 245.921 798.529 204.651C798.529 108.618 715.469 30.7665 613.011 30.7664C553.609 30.7665 500.73 56.9352 466.775 97.6425H427C465.487 39.0577 534.544 0.000165572 613.333 0Z" fill="#30B8EC"/>
<path d="M25.168 516.792C20.768 516.792 16.9547 515.883 13.728 514.064C10.56 512.187 8.096 509.576 6.336 506.232C4.576 502.829 3.696 498.84 3.696 494.264C3.696 489.747 4.576 485.845 6.336 482.56C8.096 479.275 10.56 476.752 13.728 474.992C16.9547 473.173 20.768 472.264 25.168 472.264C27.8667 472.264 30.536 472.733 33.176 473.672C35.816 474.552 37.9867 475.843 39.688 477.544L36.872 483.792C35.288 482.267 33.4987 481.152 31.504 480.448C29.5093 479.685 27.632 479.304 25.872 479.304C21.7067 479.304 18.48 480.624 16.192 483.264C13.9627 485.845 12.848 489.541 12.848 494.352C12.848 499.163 13.9627 502.947 16.192 505.704C18.48 508.403 21.7067 509.752 25.872 509.752C27.632 509.752 29.5093 509.4 31.504 508.696C33.4987 507.933 35.288 506.789 36.872 505.264L39.688 511.6C37.9867 513.184 35.7867 514.445 33.088 515.384C30.448 516.323 27.808 516.792 25.168 516.792ZM65.1228 516.792C60.7814 516.792 57.0268 515.883 53.8588 514.064C50.7494 512.245 48.3148 509.664 46.5548 506.32C44.7948 502.976 43.9148 499.045 43.9148 494.528C43.9148 489.952 44.7948 486.021 46.5548 482.736C48.3148 479.392 50.7494 476.811 53.8588 474.992C57.0268 473.173 60.7814 472.264 65.1228 472.264C69.4054 472.264 73.1014 473.173 76.2108 474.992C79.3788 476.811 81.8428 479.392 83.6028 482.736C85.3628 486.08 86.2428 490.011 86.2428 494.528C86.2428 499.045 85.3628 502.976 83.6028 506.32C81.8428 509.664 79.3788 512.245 76.2108 514.064C73.1014 515.883 69.4054 516.792 65.1228 516.792ZM65.0348 509.928C68.7308 509.928 71.6934 508.608 73.9228 505.968C76.1521 503.328 77.2668 499.515 77.2668 494.528C77.2668 489.483 76.1521 485.669 73.9228 483.088C71.6934 480.507 68.7308 479.216 65.0348 479.216C61.3974 479.216 58.4641 480.507 56.2348 483.088C54.0054 485.669 52.8908 489.483 52.8908 494.528C52.8908 499.515 54.0054 503.328 56.2348 505.968C58.4641 508.608 61.3974 509.928 65.0348 509.928ZM96.2246 516V473.056H104.849V482.208H103.881C105.171 478.923 107.195 476.459 109.953 474.816C112.71 473.115 115.878 472.264 119.457 472.264C122.859 472.264 125.675 472.909 127.905 474.2C130.193 475.432 131.894 477.339 133.009 479.92C134.123 482.443 134.681 485.64 134.681 489.512V516H125.793V490.04C125.793 487.576 125.47 485.581 124.825 484.056C124.179 482.472 123.211 481.299 121.921 480.536C120.63 479.773 118.958 479.392 116.905 479.392C114.558 479.392 112.475 479.891 110.657 480.888C108.897 481.885 107.518 483.323 106.521 485.2C105.582 487.077 105.113 489.248 105.113 491.712V516H96.2246ZM167.08 516.792C162.386 516.792 158.338 515.912 154.936 514.152C151.592 512.333 148.981 509.781 147.104 506.496C145.285 503.152 144.376 499.192 144.376 494.616C144.376 490.157 145.285 486.256 147.104 482.912C148.922 479.568 151.416 476.957 154.584 475.08C157.752 473.203 161.36 472.264 165.408 472.264C169.397 472.264 172.8 473.144 175.616 474.904C178.49 476.605 180.69 479.04 182.216 482.208C183.741 485.376 184.504 489.16 184.504 493.56V496.552H151.416V491.096H178.52L177.024 492.328C177.024 487.928 176.056 484.525 174.12 482.12C172.184 479.715 169.397 478.512 165.76 478.512C163.002 478.512 160.656 479.157 158.72 480.448C156.842 481.739 155.405 483.528 154.408 485.816C153.41 488.104 152.912 490.773 152.912 493.824V494.352C152.912 497.755 153.44 500.629 154.496 502.976C155.61 505.264 157.224 506.995 159.336 508.168C161.448 509.341 164.058 509.928 167.168 509.928C169.632 509.928 172.037 509.547 174.384 508.784C176.789 507.963 179.048 506.701 181.16 505L183.8 511.16C181.864 512.92 179.37 514.299 176.32 515.296C173.269 516.293 170.189 516.792 167.08 516.792ZM188.13 516L207.754 491.624V496.024L189.274 473.056H199.658L212.77 489.776H209.602L222.714 473.056H233.098L214.618 495.848V491.888L234.242 516H223.682L209.602 498.224H212.594L198.602 516H188.13ZM258.482 516.792C254.141 516.792 250.386 515.883 247.218 514.064C244.109 512.245 241.674 509.664 239.914 506.32C238.154 502.976 237.274 499.045 237.274 494.528C237.274 489.952 238.154 486.021 239.914 482.736C241.674 479.392 244.109 476.811 247.218 474.992C250.386 473.173 254.141 472.264 258.482 472.264C262.765 472.264 266.461 473.173 269.57 474.992C272.738 476.811 275.202 479.392 276.962 482.736C278.722 486.08 279.602 490.011 279.602 494.528C279.602 499.045 278.722 502.976 276.962 506.32C275.202 509.664 272.738 512.245 269.57 514.064C266.461 515.883 262.765 516.792 258.482 516.792ZM258.394 509.928C262.09 509.928 265.053 508.608 267.282 505.968C269.511 503.328 270.626 499.515 270.626 494.528C270.626 489.483 269.511 485.669 267.282 483.088C265.053 480.507 262.09 479.216 258.394 479.216C254.757 479.216 251.823 480.507 249.594 483.088C247.365 485.669 246.25 489.483 246.25 494.528C246.25 499.515 247.365 503.328 249.594 505.968C251.823 508.608 254.757 509.928 258.394 509.928ZM246.778 464.344L242.114 463.992C242.407 460.179 243.434 457.187 245.194 455.016C246.954 452.787 249.242 451.672 252.058 451.672C253.349 451.672 254.522 451.965 255.578 452.552C256.693 453.139 257.954 454.019 259.362 455.192C260.653 456.248 261.679 456.981 262.442 457.392C263.205 457.803 263.967 458.008 264.73 458.008C266.255 458.008 267.458 457.451 268.338 456.336C269.277 455.221 269.893 453.579 270.186 451.408L274.85 451.672C274.615 455.544 273.618 458.565 271.858 460.736C270.098 462.907 267.81 463.992 264.994 463.992C263.821 463.992 262.677 463.728 261.562 463.2C260.506 462.672 259.186 461.792 257.602 460.56C256.37 459.504 255.373 458.771 254.61 458.36C253.847 457.949 253.055 457.744 252.234 457.744C250.767 457.744 249.565 458.301 248.626 459.416C247.746 460.472 247.13 462.115 246.778 464.344ZM309.736 516.792C305.043 516.792 300.995 515.912 297.592 514.152C294.248 512.333 291.637 509.781 289.76 506.496C287.941 503.152 287.032 499.192 287.032 494.616C287.032 490.157 287.941 486.256 289.76 482.912C291.579 479.568 294.072 476.957 297.24 475.08C300.408 473.203 304.016 472.264 308.064 472.264C312.053 472.264 315.456 473.144 318.272 474.904C321.147 476.605 323.347 479.04 324.872 482.208C326.397 485.376 327.16 489.16 327.16 493.56V496.552H294.072V491.096H321.176L319.68 492.328C319.68 487.928 318.712 484.525 316.776 482.12C314.84 479.715 312.053 478.512 308.416 478.512C305.659 478.512 303.312 479.157 301.376 480.448C299.499 481.739 298.061 483.528 297.064 485.816C296.067 488.104 295.568 490.773 295.568 493.824V494.352C295.568 497.755 296.096 500.629 297.152 502.976C298.267 505.264 299.88 506.995 301.992 508.168C304.104 509.341 306.715 509.928 309.824 509.928C312.288 509.928 314.693 509.547 317.04 508.784C319.445 507.963 321.704 506.701 323.816 505L326.456 511.16C324.52 512.92 322.027 514.299 318.976 515.296C315.925 516.293 312.845 516.792 309.736 516.792ZM351.898 516.792C349.61 516.792 347.38 516.587 345.21 516.176C343.039 515.765 341.044 515.179 339.226 514.416C337.407 513.653 335.794 512.715 334.386 511.6L336.938 505.616C338.404 506.613 339.959 507.493 341.602 508.256C343.244 508.96 344.946 509.488 346.706 509.84C348.524 510.192 350.284 510.368 351.986 510.368C355.095 510.368 357.442 509.811 359.026 508.696C360.61 507.581 361.402 506.085 361.402 504.208C361.402 502.683 360.874 501.509 359.818 500.688C358.762 499.808 357.178 499.133 355.066 498.664L346.706 496.992C343.068 496.229 340.311 494.88 338.434 492.944C336.556 491.008 335.618 488.544 335.618 485.552C335.618 482.853 336.351 480.507 337.818 478.512C339.284 476.517 341.338 474.992 343.978 473.936C346.618 472.821 349.668 472.264 353.13 472.264C355.124 472.264 357.06 472.469 358.938 472.88C360.815 473.291 362.575 473.877 364.218 474.64C365.919 475.403 367.356 476.371 368.53 477.544L365.978 483.528C364.863 482.531 363.572 481.68 362.106 480.976C360.698 480.272 359.231 479.744 357.706 479.392C356.18 478.981 354.655 478.776 353.13 478.776C350.02 478.776 347.674 479.363 346.09 480.536C344.564 481.651 343.802 483.176 343.802 485.112C343.802 486.579 344.271 487.781 345.21 488.72C346.148 489.659 347.615 490.333 349.61 490.744L357.97 492.416C361.783 493.179 364.658 494.469 366.594 496.288C368.588 498.107 369.586 500.571 369.586 503.68C369.586 506.379 368.852 508.725 367.386 510.72C365.919 512.715 363.836 514.24 361.138 515.296C358.498 516.293 355.418 516.792 351.898 516.792ZM422.744 516.792C418.05 516.792 414.002 515.912 410.6 514.152C407.256 512.333 404.645 509.781 402.768 506.496C400.949 503.152 400.04 499.192 400.04 494.616C400.04 490.157 400.949 486.256 402.768 482.912C404.586 479.568 407.08 476.957 410.248 475.08C413.416 473.203 417.024 472.264 421.072 472.264C425.061 472.264 428.464 473.144 431.28 474.904C434.154 476.605 436.354 479.04 437.88 482.208C439.405 485.376 440.168 489.16 440.168 493.56V496.552H407.08V491.096H434.184L432.688 492.328C432.688 487.928 431.72 484.525 429.784 482.12C427.848 479.715 425.061 478.512 421.424 478.512C418.666 478.512 416.32 479.157 414.384 480.448C412.506 481.739 411.069 483.528 410.072 485.816C409.074 488.104 408.576 490.773 408.576 493.824V494.352C408.576 497.755 409.104 500.629 410.16 502.976C411.274 505.264 412.888 506.995 415 508.168C417.112 509.341 419.722 509.928 422.832 509.928C425.296 509.928 427.701 509.547 430.048 508.784C432.453 507.963 434.712 506.701 436.824 505L439.464 511.16C437.528 512.92 435.034 514.299 431.984 515.296C428.933 516.293 425.853 516.792 422.744 516.792ZM463.849 516.792C459.156 516.792 455.636 515.472 453.289 512.832C451.001 510.133 449.857 506.261 449.857 501.216V453.96H458.745V500.688C458.745 502.565 459.009 504.179 459.537 505.528C460.065 506.819 460.857 507.787 461.913 508.432C462.969 509.077 464.289 509.4 465.873 509.4C466.577 509.4 467.252 509.371 467.897 509.312C468.543 509.253 469.159 509.136 469.745 508.96L469.569 516.088C468.572 516.323 467.604 516.499 466.665 516.616C465.727 516.733 464.788 516.792 463.849 516.792ZM496.478 516.792C491.785 516.792 487.737 515.912 484.334 514.152C480.99 512.333 478.379 509.781 476.502 506.496C474.683 503.152 473.774 499.192 473.774 494.616C473.774 490.157 474.683 486.256 476.502 482.912C478.321 479.568 480.814 476.957 483.982 475.08C487.15 473.203 490.758 472.264 494.806 472.264C498.795 472.264 502.198 473.144 505.014 474.904C507.889 476.605 510.089 479.04 511.614 482.208C513.139 485.376 513.902 489.16 513.902 493.56V496.552H480.814V491.096H507.918L506.422 492.328C506.422 487.928 505.454 484.525 503.518 482.12C501.582 479.715 498.795 478.512 495.158 478.512C492.401 478.512 490.054 479.157 488.118 480.448C486.241 481.739 484.803 483.528 483.806 485.816C482.809 488.104 482.31 490.773 482.31 493.824V494.352C482.31 497.755 482.838 500.629 483.894 502.976C485.009 505.264 486.622 506.995 488.734 508.168C490.846 509.341 493.457 509.928 496.566 509.928C499.03 509.928 501.435 509.547 503.782 508.784C506.187 507.963 508.446 506.701 510.558 505L513.198 511.16C511.262 512.92 508.769 514.299 505.718 515.296C502.667 516.293 499.587 516.792 496.478 516.792ZM491.814 467.336L500.878 449.56H509.942L497.974 467.336H491.814ZM541.81 516.792C536.471 516.792 532.452 515.413 529.754 512.656C527.114 509.899 525.794 505.909 525.794 500.688V479.92H517.434V473.056H525.794V460.12H534.682V473.056H547.97V479.92H534.682V499.984C534.682 503.093 535.327 505.44 536.618 507.024C537.967 508.608 540.138 509.4 543.13 509.4C544.01 509.4 544.89 509.283 545.77 509.048C546.708 508.813 547.618 508.579 548.498 508.344L549.906 515.032C549.026 515.56 547.794 515.971 546.21 516.264C544.684 516.616 543.218 516.792 541.81 516.792ZM555.646 516V473.056H564.27V483.352H563.39C564.329 479.832 566.001 477.163 568.406 475.344C570.87 473.525 574.126 472.469 578.174 472.176L581.078 472L581.694 479.568L576.326 480.096C572.513 480.448 569.609 481.651 567.614 483.704C565.62 485.757 564.622 488.573 564.622 492.152V516H555.646ZM587.683 463.112V453.872H598.067V463.112H587.683ZM588.475 516V473.056H597.363V516H588.475ZM628.793 516.792C624.393 516.792 620.58 515.883 617.353 514.064C614.185 512.187 611.721 509.576 609.961 506.232C608.201 502.829 607.321 498.84 607.321 494.264C607.321 489.747 608.201 485.845 609.961 482.56C611.721 479.275 614.185 476.752 617.353 474.992C620.58 473.173 624.393 472.264 628.793 472.264C631.492 472.264 634.161 472.733 636.801 473.672C639.441 474.552 641.612 475.843 643.313 477.544L640.497 483.792C638.913 482.267 637.124 481.152 635.129 480.448C633.134 479.685 631.257 479.304 629.497 479.304C625.332 479.304 622.105 480.624 619.817 483.264C617.588 485.845 616.473 489.541 616.473 494.352C616.473 499.163 617.588 502.947 619.817 505.704C622.105 508.403 625.332 509.752 629.497 509.752C631.257 509.752 633.134 509.4 635.129 508.696C637.124 507.933 638.913 506.789 640.497 505.264L643.313 511.6C641.612 513.184 639.412 514.445 636.713 515.384C634.073 516.323 631.433 516.792 628.793 516.792ZM664.335 516.792C661.343 516.792 658.645 516.205 656.239 515.032C653.893 513.859 652.045 512.275 650.695 510.28C649.346 508.285 648.671 506.027 648.671 503.504C648.671 500.336 649.463 497.843 651.047 496.024C652.69 494.147 655.359 492.827 659.055 492.064C662.81 491.243 667.855 490.832 674.191 490.832H678.327V496.288H674.279C671.111 496.288 668.442 496.405 666.271 496.64C664.101 496.875 662.37 497.256 661.079 497.784C659.789 498.253 658.85 498.928 658.263 499.808C657.735 500.688 657.471 501.744 657.471 502.976C657.471 505.205 658.234 507.024 659.759 508.432C661.285 509.781 663.397 510.456 666.095 510.456C668.266 510.456 670.173 509.957 671.815 508.96C673.458 507.904 674.749 506.496 675.687 504.736C676.685 502.976 677.183 500.952 677.183 498.664V488.544C677.183 485.2 676.479 482.795 675.071 481.328C673.663 479.861 671.346 479.128 668.119 479.128C665.655 479.128 663.191 479.509 660.727 480.272C658.263 480.976 655.741 482.12 653.159 483.704L650.431 477.456C651.957 476.4 653.717 475.491 655.711 474.728C657.706 473.965 659.789 473.379 661.959 472.968C664.189 472.499 666.33 472.264 668.383 472.264C672.314 472.264 675.541 472.88 678.063 474.112C680.645 475.344 682.551 477.221 683.783 479.744C685.015 482.267 685.631 485.523 685.631 489.512V516H677.271V506.408H678.063C677.594 508.579 676.714 510.456 675.423 512.04C674.191 513.565 672.637 514.739 670.759 515.56C668.882 516.381 666.741 516.792 664.335 516.792ZM712.921 516.792C710.633 516.792 708.404 516.587 706.233 516.176C704.062 515.765 702.068 515.179 700.249 514.416C698.43 513.653 696.817 512.715 695.409 511.6L697.961 505.616C699.428 506.613 700.982 507.493 702.625 508.256C704.268 508.96 705.969 509.488 707.729 509.84C709.548 510.192 711.308 510.368 713.009 510.368C716.118 510.368 718.465 509.811 720.049 508.696C721.633 507.581 722.425 506.085 722.425 504.208C722.425 502.683 721.897 501.509 720.841 500.688C719.785 499.808 718.201 499.133 716.089 498.664L707.729 496.992C704.092 496.229 701.334 494.88 699.457 492.944C697.58 491.008 696.641 488.544 696.641 485.552C696.641 482.853 697.374 480.507 698.841 478.512C700.308 476.517 702.361 474.992 705.001 473.936C707.641 472.821 710.692 472.264 714.153 472.264C716.148 472.264 718.084 472.469 719.961 472.88C721.838 473.291 723.598 473.877 725.241 474.64C726.942 475.403 728.38 476.371 729.553 477.544L727.001 483.528C725.886 482.531 724.596 481.68 723.129 480.976C721.721 480.272 720.254 479.744 718.729 479.392C717.204 478.981 715.678 478.776 714.153 478.776C711.044 478.776 708.697 479.363 707.113 480.536C705.588 481.651 704.825 483.176 704.825 485.112C704.825 486.579 705.294 487.781 706.233 488.72C707.172 489.659 708.638 490.333 710.633 490.744L718.993 492.416C722.806 493.179 725.681 494.469 727.617 496.288C729.612 498.107 730.609 500.571 730.609 503.68C730.609 506.379 729.876 508.725 728.409 510.72C726.942 512.715 724.86 514.24 722.161 515.296C719.521 516.293 716.441 516.792 712.921 516.792Z" fill="#013866"/>
</svg>
